<?xml version="1.0" encoding="utf-8"?>
<!-- Generator: Adobe Illustrator 23.0.2, SVG Export Plug-In . SVG Version: 6.00 Build 0)  -->
<svg version="1.1" id="Ebene_1" xmlns="http://www.w3.org/2000/svg" xmlns:xlink="http://www.w3.org/1999/xlink" x="0px" y="0px"
	 viewBox="0 0 683 202.67" style="enable-background:new 0 0 683 202.67;" xml:space="preserve">
<style type="text/css">
	.st0{fill-rule:evenodd;clip-rule:evenodd;fill:#004F9F;}
</style>
<g>
	<polygon class="st0" points="619.8,197.44 574.74,152.71 559.59,152.51 559.59,148.79 576.5,148.75 622.49,195.19 619.8,197.44 	
		"/>
	<polygon class="st0" points="633.15,184.37 583.2,134.25 583.2,134.01 582.5,133.39 559.59,133.19 559.59,129.47 584.34,129.47 
		635.89,182.21 635.6,182.21 633.15,184.37 	"/>
	<polygon class="st0" points="646.75,170.48 590.71,114.48 559.7,114.28 559.7,110.52 592.63,110.56 649.45,168.24 646.75,170.48 	
		"/>
	<polygon class="st0" points="660.99,157.85 598.55,95.45 559.59,95.2 559.59,91.48 600.68,91.44 664.03,154.79 660.99,157.85 	"/>
	<path class="st0" d="M380.19,156.31c-4.86-0.82-9.27-1.47-13.52-3.92c1.08-4.53,1.14-4.78,1.76-6.98c0.2,0,0-0.02,0.24-0.02
		c9.68,5.19,26.55,6.88,26.55-7.99c-1.8-7.8-12.81-10.62-16.91-12.54c-2.87-1.35-4.97-3.18-7.26-5.3
		c-5.2-8.42-3.78-15.64,2.88-22.56c3.36-2.38,6.06-3.06,10.19-3.79c2.06-0.19,10.57-1.62,16.95,3.88c-0.33,1.06-0.86,1.93-2.86,5.43
		c-8.46-3.63-23-4.61-21.93,8.46c2.41,6.74,10.13,8.74,16.17,11.23c8.58,4.29,12.29,10.54,10.95,20.22
		C399.67,153.65,391.46,156.1,380.19,156.31L380.19,156.31z"/>
	<path class="st0" d="M424.71,156.31c-4.74-0.74-9.44-1.43-13.52-4.04c1.18-4.71,1.22-4.9,1.8-6.99c0.2,0.04-0.02,0.01,0.19,0.05
		c6.82,4.04,18.15,6.28,24.36,0.07c8.9-15.24-11.36-17.28-19.85-23.98c-7.72-7.72-6.86-17.85,1.47-24.92
		c8.17-4.53,17.93-4.45,26.39-0.69c-1.09,2.92-1.23,3.13-2.82,6.7c-6.78-3.14-15.52-4.41-20.79,1.84
		c-4.58,12.25,7.92,14.42,16.71,18.71c7.64,4.49,9.52,8.99,9.52,17.89C446.44,153.16,435.45,156.14,424.71,156.31L424.71,156.31z"/>
	<polygon class="st0" points="264.59,155.25 264.55,94.06 272.52,94.06 272.68,94.51 272.84,122.9 296,94.06 305.77,94.06 
		284.28,119.75 284.24,120.12 307.48,155.12 298.09,155.16 278.36,125.92 277.83,125.92 272.68,132.78 272.48,155.12 264.59,155.25 
			"/>
	<path class="st0" d="M340.28,94.18h-9.84l-20.59,60.25l0.08,0.82l8.17-0.12l6.54-18.91l20.95,0.04l6.49,18.59l0.33,0.33l8.46-0.04
		l0.04-0.57L340.28,94.18z M326.39,129.64l8.46-27.37h0.41l8.58,27.24L326.39,129.64z"/>
	<path class="st0" d="M458.86,155.25c-0.04-20.38-0.04-40.72-0.04-61.07c10.99,0,21.98,0,33,0c-0.04,2.25-0.08,4.49-0.12,6.74
		c-8.25,0.04-16.5,0.12-24.71,0.2c0,6.21,0,12.46,0,18.71c7.8,0.08,15.64,0.16,23.49,0.24c0,2.12,0,4.29,0,6.45
		c-0.2,0.04-0.41,0.08-0.57,0.16c-7.64,0-15.28,0-22.91,0.04c-0.04,7.11-0.04,14.26-0.04,21.4c0.04,0.04,0.12,0.08,0.2,0.16
		c8.62,0,17.24,0.04,25.9,0.08c0.16,1.18,0.69,6.04,0,6.74C481.65,155.16,470.26,155.21,458.86,155.25L458.86,155.25z"/>
	<path class="st0" d="M503.26,155.25c-0.04-20.42-0.04-40.81-0.04-61.19c2.7,0,5.39,0,8.09,0c0.04,18.01,0.12,36.07,0.2,54.12
		c25.69,0.2,25.69,0.2,25.81,0.33c-0.04,6.49-0.04,6.49-0.16,6.62C525.85,155.16,514.53,155.21,503.26,155.25L503.26,155.25z"/>
	<polygon class="st0" points="6.24,93.61 9.18,90.67 68.57,150.02 234.94,150.3 234.94,154.02 67.02,154.06 66.57,153.9 6.24,93.61 
			"/>
	<polygon class="st0" points="677.45,141.54 674.59,144.24 605.96,76.01 464.06,75.8 464.06,72.08 607.88,72.04 677.45,141.54 	"/>
	<polygon class="st0" points="74.65,135.35 19.68,80.62 22.62,77.8 76.45,131.23 235.07,131.51 235.03,135.23 74.65,135.35 	"/>
	<polygon class="st0" points="82.25,116.85 33.03,66.2 36.01,64 84.25,112.77 234.89,112.97 234.89,116.73 82.25,116.85 	"/>
	<polygon class="st0" points="91.24,98.18 45.86,53.82 48.97,50.73 93.04,94.14 235.08,94.34 235.08,97.94 91.24,98.18 	"/>
	<path class="st0" d="M221.95,32.05c-6.98-10.78-20.1-11.52-30.55-5.39c-9.4,7.31-11.52,18.14-10.21,29.57
		C184.49,68.86,190.82,74,203.57,76c6.7-0.16,12.83-0.82,19.08-3.27c0.29-1.59-1.1-5.11-1.47-6.74c-0.29-0.04-0.57-0.04-0.86-0.04
		c-13.19,5.27-30.39,2.33-30.39-14.79c11.76-0.08,23.53-0.16,35.33-0.2C226.69,44.76,224.69,37.53,221.95,32.05z M216.27,44.14
		c-8.74,0.04-17.48,0.08-26.18,0.12c-0.94-2.33,2.7-8.41,4.33-10.29C203.69,25.68,217.21,30.99,216.27,44.14z"/>
	<path class="st0" d="M291.96,76c-17.11-2.41-24.88-11.48-24.88-28.88c1.35-11.32,6.74-18.59,17.12-22.96
		c7.72-2.2,16.71-3.06,24.39,0.04c-1.14,6-1.51,8.33-2.33,12.05c-0.24,0,0.15-0.03-0.06,0.01c-12.83-4.49-25.31,2.81-21.84,17.39
		c3.92,9.68,13.21,10.89,22.31,7.87c0.2,0-0.18-0.03,0.03,0.01c0.82,4.52,0.88,4.85,1.84,12.05C303.19,75.51,297.68,75.92,291.96,76
		L291.96,76z"/>
	<path class="st0" d="M342.68,22.11c6.12,0.34,11.06,1.85,14.8,4.51c3.76,2.68,6.41,6.05,7.96,10.08c1.54,4.03,2.31,8.41,2.31,13.09
		c0,4.8-1.06,9.19-3.18,13.17c-2.12,3.98-5.19,7.12-9.24,9.43c-4.03,2.31-8.81,3.45-14.31,3.45c-4.68-0.12-8.66-0.84-11.98-2.17
		c-3.31-1.35-6-3.14-8.02-5.4c-2.04-2.25-3.57-4.82-4.58-7.65c-1.01-2.85-1.69-5.98-2.03-9.38c-0.06-0.48-0.1-1.23-0.1-2.26
		c0-4.77,0.96-9.21,2.89-13.29c1.93-4.1,4.89-7.38,8.86-9.86c3.97-2.48,8.83-3.72,14.58-3.72H342.68L342.68,22.11z M340.81,34.04
		c-6.43,0.04-9.87,5.88-9.89,14.76c-0.02,8.88,3.62,15.6,10.21,15.48c6.6-0.11,10.02-6.87,9.92-15.48
		C350.95,40.18,347.24,34,340.81,34.04L340.81,34.04z"/>
	<path class="st0" d="M250.13,75.84c-8.9-2.08-10.87-7.48-11.36-16.05c-0.08-9.52-0.16-19.03-0.21-28.51
		c-2.53-0.08-5.02-0.16-7.51-0.2c0-2.33,0-4.66,0-6.99c2.49-0.08,4.98-0.16,7.51-0.24l0.25-9.07l9.15-2.7
		c0.08,3.92,0.16,7.84,0.24,11.76c4.25,0.08,8.54,0.16,12.83,0.24c0,2.33,0,4.66,0,6.99c-4.29,0.04-8.58,0.12-12.83,0.2
		c-0.04,9.8-0.04,19.61-0.04,29.45c1.14,6.37,3.51,7.56,10.13,7.03c1.23-0.29,1.23-0.29,1.92-0.25c0.29,2.21,0.73,4.98,0.29,7.15
		C256.99,75.68,253.73,75.8,250.13,75.84L250.13,75.84z"/>
	<polygon class="st0" points="116.03,3.95 126.24,3.95 160.09,59.79 160.15,3.95 169.13,3.95 169.01,74.78 159.58,74.66 
		124.61,16.74 124.33,16.61 124.77,74.78 116.11,74.78 115.95,74.49 116.03,3.95 	"/>
	<path class="st0" d="M376.35,74.9c-0.04-17.16-0.12-34.35-0.57-51.51c4.53,0,9.11,0,13.68,0c0.25,2.08,0.49,4.21,0.74,6.33
		c0.08,0,0.2,0,0.33,0c5.43-8.17,16.91-9.48,24.92-4.62c1.8,1.72,3.02,3.14,4.33,5.27c0.53,0,3.47-3.43,3.68-3.64
		c11.07-8.29,25.08-5.06,29.21,8.66c0.57,2.74,0.57,2.74,0.98,5.88c-0.04,11.15-0.04,22.3-0.04,33.49
		c-5.27-0.04-10.5-0.08-15.73-0.12c-0.08-10.25-0.12-20.46-0.16-30.68c-0.57-3.43-1.35-5.88-4.25-7.92
		c-6.09-1.72-9.27,1.55-10.62,7.39c-0.12,10.42-0.2,20.87-0.29,31.33c-5.23-0.04-10.42-0.08-15.6-0.12
		c-0.08-10.46-0.12-20.91-0.16-31.33c-2.04-10.25-11.23-10.09-14.58-0.98c-0.12,1.23-0.12,1.23-0.29,32.43
		C386.72,74.82,381.54,74.86,376.35,74.9L376.35,74.9z"/>
</g>
</svg>
